<?xml version="1.0" encoding="UTF-8"?>
<svg id="Layer_1" data-name="Layer 1" xmlns="http://www.w3.org/2000/svg" viewBox="0 0 646 205">
  <defs>
    <style>
      .cls-1 {
        fill: none;
        stroke: #bfbfbf;
        stroke-linecap: round;
        stroke-linejoin: round;
        stroke-width: 4px;
      }

      .cls-2 {
        fill: #bfbfbf;
      }
    </style>
  </defs>
  <g>
    <path d="M56.44,136.19c-2.21,0-3.02-.91-3.02-2.62,0-3.52,7.04-4.63,8.45-11.06l10.76-51.19h-2.82c-10.06,0-15.89,13.98-20.62,13.98-.7,0-1.21-.4-1.01-1.41.6-3.62,4.02-8.35,5.43-14.68.6-3.22,1.81-4.02,4.93-4.02h52.2c3.22,0,3.92.8,3.32,3.92-1.11,5.63-.5,10.56-.8,14.28-.1,1.31-.91,1.91-1.61,1.91-4.83,0-4.73-13.98-14.78-13.98h-2.82l-10.76,51.09c-1.41,6.44,6.84,7.64,6.84,11.16,0,1.71-.8,2.62-2.82,2.62-2.51,0-7.44-.6-9.45-.6h-11.26c-2.21,0-6.64.6-10.16.6Z"/>
    <path d="M95.16,152.38c0-4.02,3.12-6.74,7.24-6.74,6.94,0,8.85,5.23,14.58,5.23,2.82,0,7.14-3.02,11.87-7.54l-8.05-41.33c-1.51-7.14-2.21-8.45-4.02-8.45-1.61,0-3.72,1.71-7.74,7.14l-2.41-1.81c5.53-8.35,13.68-15.29,21.12-15.29,8.15,0,10.26,5.23,12.47,16.79l4.22,24.94c7.54-10.06,13.48-20.32,13.48-24.34,0-6.54-7.74-4.53-7.74-11.57,0-3.12,3.02-5.73,7.04-5.73,5.53,0,7.95,3.92,7.95,9.15,0,14.58-34.8,67.68-59.14,67.68-6.03,0-10.86-3.32-10.86-8.15Z"/>
    <path d="M161.94,154.49c0-2.41,5.03-1.31,7.14-11.26l8.04-39.02c1.71-7.74,1.81-10.26.3-10.26-1.21,0-3.62,1.51-7.34,7.34l-2.62-1.91c5.43-9.55,13.68-15.49,22.12-15.49,4.53,0,10.06,1.51,9.15,9.35l-.4,2.41h1.01c4.42-7.04,10.36-11.97,18-11.97,9.76,0,15.89,6.44,15.89,17.9,0,22.53-16.19,35.6-30.78,35.6-4.83,0-8.15-1.01-10.96-2.72l-1.81,9.15c-1.81,9.35,4.83,8.55,4.83,10.86,0,1.21-1.91,1.21-3.72,1.21h-25.14c-2.62,0-3.72-.2-3.72-1.21ZM198.85,132.47c7.24,0,15.29-14.88,15.29-32.48,0-5.93-1.71-8.25-4.53-8.25-5.23,0-11.26,7.24-13.17,17l-2.72,14.38c-1.21,6.24,1.51,9.35,5.13,9.35Z"/>
    <path d="M235.26,116.17c0-18.71,15.59-32.48,35.1-32.48,12.97,0,19.81,5.83,19.81,12.17,0,12.27-19.41,18.2-33.99,20.52,2.01,5.93,6.94,9.35,13.38,9.35,5.63,0,10.66-3.72,13.48-7.64l3.32,1.91c-2.92,6.44-12.07,17.2-27.36,17.2-11.97,0-23.73-7.44-23.73-21.02ZM255.37,112.55c11.87-2.41,18.2-10.26,18.2-18.81,0-4.33-1.91-6.14-4.73-6.14-8.25,0-13.68,8.55-13.68,22.03,0,1.01.1,2.01.2,2.92Z"/>
    <path class="cls-2" d="M339.15,122.51l9.35-44.15c1.41-6.44-6.84-7.64-6.84-11.16,0-1.71.8-2.62,2.82-2.62,2.51,0,7.44.6,9.45.6h9.05c4.73,0,6.94,1.21,8.45,5.13l17.8,45.06,7.84-37.01c1.41-6.44-6.84-7.64-6.84-11.16,0-1.71.8-2.62,2.72-2.62,2.01,0,5.23.3,7.64.5,2.21-.2,5.23-.5,7.74-.5,2.01,0,2.82.91,2.82,2.62,0,3.52-6.64,4.63-7.95,11.06l-12.27,57.33h-5.33c-11.77,0-14.48-3.02-17.5-10.86l-14.99-39.22-7.84,36.91c-1.41,6.44,6.84,7.64,6.84,11.16,0,1.71-.8,2.62-2.82,2.62s-5.23-.3-7.64-.5c-2.11.2-5.23.5-7.64.5-2.01,0-2.82-.91-2.82-2.62,0-3.52,6.54-4.63,7.95-11.06Z"/>
    <path class="cls-2" d="M404.12,116.17c0-18.71,15.59-32.48,35.1-32.48,12.97,0,19.81,5.83,19.81,12.17,0,12.27-19.41,18.2-33.99,20.52,2.01,5.93,6.94,9.35,13.38,9.35,5.63,0,10.66-3.72,13.48-7.64l3.32,1.91c-2.92,6.44-12.07,17.2-27.36,17.2-11.97,0-23.73-7.44-23.73-21.02ZM424.24,112.55c11.87-2.41,18.2-10.26,18.2-18.81,0-4.33-1.91-6.14-4.73-6.14-8.25,0-13.68,8.55-13.68,22.03,0,1.01.1,2.01.2,2.92Z"/>
    <path class="cls-2" d="M467.59,119.9l3.72-16.79c1.81-7.54,1.81-9.86.3-9.96-1.21,0-3.72,1.41-7.44,6.94l-2.51-1.81c5.43-9.15,13.78-14.78,22.12-14.58,7.95.1,10.86,5.33,7.64,19.21l-2.41,11.46c-1.61,8.65-.2,10.76,2.72,10.76,4.63,0,10.36-8.45,14.08-21.02l2.51-11.36c-.1-1.31-.1-3.92.2-5.23.3-1.51,1.11-2.21,1.61-2.21h19.21c.4,0,.91,1.11.6,2.61-.3,1.31-1.31,3.72-1.91,4.83l-4.32,21.72c-1.61,8.55,0,10.66,2.72,10.66,5.93,0,17.8-16.09,17.8-24.14,0-6.54-7.64-4.53-7.64-11.16,0-3.72,3.52-6.13,6.94-6.13,5.33,0,7.84,3.92,7.84,8.55,0,14.38-18.3,44.96-37.51,44.96-7.44,0-13.48-4.53-11.87-15.39-5.33,8.65-12.97,15.39-22.83,15.39-7.95,0-14.28-5.03-11.57-17.3Z"/>
    <path class="cls-2" d="M551.27,124.32c0-3.62,2.71-6.44,6.54-6.44,7.44,0,8.45,14.88,18.61,14.88,3.72,0,6.54-1.81,6.54-5.63,0-9.75-24.84-14.88-24.84-27.96,0-10.96,13.07-15.49,24.34-15.49,13.28,0,22.13,4.83,22.13,11.06,0,3.52-2.82,5.33-5.53,5.33-7.84,0-8.15-12.17-17.1-12.17-3.72,0-5.73,2.01-5.73,4.63,0,7.94,24.24,13.58,24.24,27.86,0,9.86-10.56,16.8-26.65,16.8-14.78,0-22.53-6.94-22.53-12.87Z"/>
  </g>
  <line class="cls-1" x1="323" y1="48" x2="323" y2="157.99"/>
  <path d="M609.1,205H36.9c-20.35,0-36.9-16.55-36.9-36.9V36.9C0,16.55,16.55,0,36.9,0h572.2C629.45,0,646,16.55,646,36.9v131.2c0,20.35-16.55,36.9-36.9,36.9ZM36.9,8c-15.93,0-28.9,12.96-28.9,28.9v131.2c0,15.93,12.96,28.9,28.9,28.9h572.2c15.93,0,28.9-12.96,28.9-28.9V36.9c0-15.93-12.96-28.9-28.9-28.9H36.9Z"/>
</svg>