<?xml version="1.0" encoding="UTF-8"?>
<svg id="Layer_1" data-name="Layer 1" xmlns="http://www.w3.org/2000/svg" viewBox="0 0 813 263">
  <defs>
    <style>
      .cls-1 {
        fill: #bfbfbf;
      }

      .cls-2 {
        fill: #0a0a0a;
      }
    </style>
  </defs>
  <path class="cls-2" d="M441,255h-31V8h31c2.21,0,4-1.79,4-4s-1.79-4-4-4h-34.9s-.06,0-.1,0-.06,0-.1,0h-33.9c-2.21,0-4,1.79-4,4s1.79,4,4,4h30v247h-30c-2.21,0-4,1.79-4,4s1.79,4,4,4h69c2.21,0,4-1.79,4-4s-1.79-4-4-4Z"/>
  <path class="cls-2" d="M345,230H30c-12.13,0-22-9.87-22-22V57c0-12.13,9.87-22,22-22h315c2.21,0,4-1.79,4-4s-1.79-4-4-4H30C13.46,27,0,40.46,0,57v151C0,224.54,13.46,238,30,238h315c2.21,0,4-1.79,4-4s-1.79-4-4-4Z"/>
  <path class="cls-2" d="M467,35h12s180,0,180,0h123c12.13,0,22,9.87,22,22v151c0,12.13-9.87,22-22,22h-123s-180,0-180,0h-12c-2.21,0-4,1.79-4,4s1.79,4,4,4h12s180,0,180,0h123c16.54,0,30-13.46,30-30V57c0-16.54-13.46-30-30-30h-123s-180,0-180,0h-12c-2.21,0-4,1.79-4,4s1.79,4,4,4Z"/>
  <g>
    <path d="M87.08,173.58c-2.09,0-2.9-.81-2.9-2.56,0-3.72,8.25-4.88,8.25-12.54v-60.04h-4.53c-11.38,0-14.52,15.45-19.74,15.45-.81,0-1.51-.46-1.51-1.51,0-3.95,2.67-9.76,2.67-16.49,0-3.37,1.16-4.18,4.53-4.18h58.88c3.37,0,4.41.81,4.41,4.18,0,6.74,2.67,12.54,2.67,16.49,0,1.04-.7,1.51-1.39,1.51-5.23,0-8.48-15.45-19.86-15.45h-4.3v59.93c0,7.78,8.25,8.94,8.25,12.66,0,1.74-.93,2.56-3.02,2.56-2.79,0-8.36-.58-11.27-.58h-9.87c-2.9,0-7.78.58-11.27.58Z"/>
    <path d="M144.68,192.04c0-5.34,3.6-8.83,8.36-8.83,6.39,0,9.17,4.3,12.89,4.3s7.32-5.46,9.41-10.8c-4.3-.23-7.43-1.51-10.1-8.13l-15.79-39.49c-2.79-7.08-9.99-7.78-9.99-11.96,0-1.86,1.04-2.9,3.6-2.9,4.41,0,8.25.7,14.52.7h.46c5.23,0,8.59-.58,12.31-.58,2.21,0,3.14.81,3.14,2.67,0,3.83-6.16,4.53-3.48,11.15l12.31,30.54,10.92-29.38c2.79-7.2-4.3-7.9-4.3-12.19,0-1.86,1.05-2.9,3.48-2.9s4.88.23,7.43.46c2.32-.23,4.41-.35,6.62-.35,2.32,0,3.37.81,3.37,2.56,0,3.72-6.85,4.41-9.29,10.8l-17.07,43.43c-6.62,16.96-13.59,30.66-26.71,30.66-6.85,0-12.08-3.48-12.08-9.76Z"/>
    <path d="M213.9,196.8c-2.09,0-2.9-.81-2.9-2.55,0-3.72,5.81-4.41,5.81-11.27v-50.98c0-7.32-4.76-8.13-4.76-11.03,0-1.63,1.63-3.37,5.23-3.48,8.48-.23,13.24-4.41,17.54-4.41,1.86,0,2.67.93,2.67,3.72v.46c4.76-3.02,9.06-4.18,14.05-4.18,11.61,0,24.74,8.83,24.74,31.12s-14.4,30.66-24.39,30.66c-7.32,0-11.85-2.67-13.7-4.99h-.7v13.12c0,6.85,5.81,7.55,5.81,11.27,0,1.74-.93,2.55-2.9,2.55-3.6,0-6.74-.58-11.73-.58h-3.14c-4.99,0-8.01.58-11.61.58ZM245.02,166.61c5.34,0,9.41-6.62,9.41-23.34,0-15.21-4.18-23.69-10.45-23.69-3.25,0-6.16,2.44-6.5,5.81v29.61c.35,8.36,2.9,11.61,7.55,11.61Z"/>
    <path d="M280.9,144.66c0-21.83,16.72-31.59,34.61-31.59,14.17,0,26.36,7.08,26.36,18.47,0,8.71-6.39,13.94-19.97,13.94h-19.28c.93,14.28,9.87,20.32,19.16,20.32,7.08,0,11.15-2.32,14.63-5.11,1.63-1.16,3.02-1.74,3.83-1.16.7.58.58,1.74-.46,3.14-4.88,7.08-12.66,12.19-25.55,12.19-16.84,0-33.33-10.1-33.33-30.2ZM312.72,140.13c7.2,0,11.38-3.72,11.38-9.52,0-5.11-3.14-9.06-8.59-9.06-6.5,0-12.31,5.23-13.01,18.58h10.22Z"/>
  </g>
  <g>
    <path class="cls-1" d="M514.59,161.91l-29.06-47.65v43.59c0,7.55,8,8.67,8,12.28,0,1.69-.9,2.48-2.93,2.48s-5.41-.34-8.34-.45c-2.59.11-5.86.45-8.34.45-2.03,0-2.93-.79-2.93-2.48,0-3.6,8-4.73,8-12.16v-50.58c0-7.55-8-8.67-8-12.28,0-1.69.9-2.48,2.93-2.48,2.7,0,8,.56,10.93.56h5.52c4.39,0,6.76,1.13,9.01,4.73l33.23,53.62v-44.16c0-7.55-8-8.67-8-12.28,0-1.69.9-2.48,2.93-2.48s5.41.34,8.34.45c2.59-.11,5.86-.45,8.34-.45,2.03,0,2.93.79,2.93,2.48,0,3.61-8,4.73-8,12.17v64.77h-5.29c-11.49,0-14.87-3.04-19.26-10.14Z"/>
    <path class="cls-1" d="M550.3,144.56c0-21.18,16.22-30.64,33.57-30.64,13.74,0,25.57,6.87,25.57,17.91,0,8.45-6.19,13.52-19.37,13.52h-18.7c.9,13.85,9.57,19.71,18.59,19.71,6.87,0,10.81-2.25,14.19-4.96,1.58-1.13,2.93-1.69,3.72-1.13.68.56.56,1.69-.45,3.04-4.73,6.87-12.28,11.83-24.78,11.83-16.33,0-32.33-9.8-32.33-29.29ZM581.16,140.17c6.98,0,11.04-3.6,11.04-9.24,0-4.96-3.04-8.79-8.34-8.79-6.31,0-11.94,5.07-12.62,18.02h9.91Z"/>
    <path class="cls-1" d="M635.11,170.36c0-.9-.45-2.14-1.46-4.96l-14.08-35.93c-2.7-6.87-9.8-7.55-9.8-11.6,0-1.8,1.13-2.82,3.6-2.82,4.28,0,8,.68,14.08.68h.22c5.18,0,8.34-.56,11.94-.56,2.14,0,3.04.79,3.04,2.59,0,3.72-5.97,4.39-3.38,10.81l11.49,29.51,8.56-22.53-1.91-5.97c-2.37-6.98-9.35-7.66-9.35-11.71,0-1.8,1.01-2.82,3.49-2.82,4.28,0,8.11.68,14.19.68h.11c5.07,0,8.34-.56,11.94-.56,2.14,0,2.93.79,2.93,2.59,0,3.72-5.86,4.39-3.83,11.04l9.24,29.4,10.36-28.39c2.59-7.1-4.17-7.77-4.17-11.94,0-1.8,1.01-2.82,3.38-2.82s4.39.22,6.87.34c2.03-.11,3.94-.23,5.97-.23,2.37,0,3.38.79,3.38,2.25,0,3.38-6.65,3.94-8.79,9.57l-14.31,38.41c-1.01,2.7-1.35,4.05-1.35,4.96,0,1.13-.68,1.69-2.14,1.69h-12.84c-1.35,0-2.03-.56-2.03-1.69,0-.9-.34-2.25-1.24-5.07l-7.21-21.74-8.34,21.85c-1.13,2.7-1.46,4.05-1.46,4.96,0,1.13-.79,1.69-2.14,1.69h-12.84c-1.35,0-2.14-.56-2.14-1.69Z"/>
    <path class="cls-1" d="M715.65,165.97c-1.46-7.77-1.8-10.93-1.8-13.4,0-.79.45-1.46,1.35-1.46,4.51,0,14.08,15.21,29.17,15.21,4.17,0,6.65-1.8,6.65-4.96,0-11.38-35.93-14.42-35.93-31.43,0-10.03,11.38-16,29.4-16,13.52,0,20.5,2.7,21.29,4.84,1.35,3.72,3.27,9.57,3.38,12.73,0,1.01-.45,1.58-1.35,1.58-4.62,0-13.4-12.05-25.01-12.05-4.39,0-6.31,1.69-6.31,4.06,0,9.91,35.82,12.5,35.82,31.2,0,10.93-11.49,17.35-29.4,17.35s-26.81-5.41-27.26-7.66Z"/>
  </g>
</svg>