<?xml version="1.0" encoding="UTF-8"?>
<svg id="Layer_1" data-name="Layer 1" xmlns="http://www.w3.org/2000/svg" viewBox="0 0 731.58 268.42">
  <defs>
    <style>
  .cls-1 {
    fill: var(--svg-gray, #bfbfbf);
  }

  .cls-2 {
    fill: var(--svg-black, #0a0a0a);
  }
</style>
  </defs>
  <path d="M131.9,115.05c0,3.13.1,5.67.3,7.6h-2.3c-1.6-8.2-3.78-13.97-6.55-17.3-2.77-3.33-6.55-5-11.35-5h-2.3v57.1c0,2.8.28,4.83.85,6.1.57,1.27,1.57,2.12,3,2.55,1.43.43,3.72.68,6.85.75v2c-8.4-.2-14.73-.3-19-.3s-10.3.1-18.3.3v-2c3.13-.07,5.42-.32,6.85-.75,1.43-.43,2.43-1.28,3-2.55.57-1.27.85-3.3.85-6.1v-57.1h-2.2c-3.2,0-5.92.7-8.15,2.1-2.23,1.4-4.15,3.72-5.75,6.95-1.6,3.23-2.97,7.65-4.1,13.25h-2.3c.2-1.93.3-4.47.3-7.6,0-5-.23-10.67-.7-17,6.07.2,16.37.3,30.9.3s24.8-.1,30.8-.3c-.47,6.33-.7,12-.7,17Z"/>
  <path d="M188.5,117.15v2c-1.4.4-2.65,1.25-3.75,2.55-1.1,1.3-2.15,3.32-3.15,6.05l-17.9,50.3c-1.33,3.47-2.8,5.83-4.4,7.1-1.93,1.67-4.83,2.5-8.7,2.5-2.8,0-5.32-.68-7.55-2.05-2.23-1.37-3.35-3.35-3.35-5.95,0-2.07.73-3.72,2.2-4.95,1.47-1.23,3.4-1.85,5.8-1.85,2.27,0,4.08.55,5.45,1.65,1.37,1.1,2.05,2.65,2.05,4.65,0,1.4-.43,2.68-1.3,3.85-.87,1.17-2.1,2.05-3.7,2.65.47.07,1.23.1,2.3.1,4.13,0,7.17-2.63,9.1-7.9l1.6-4.8-21.2-48.2c-1.07-2.27-2.1-3.77-3.1-4.5-1-.73-2.03-1.1-3.1-1.1v-2.1c4.4.4,8.97.6,13.7.6,3.93,0,8.57-.2,13.9-.6v2.1c-2.13,0-3.72.15-4.75.45-1.03.3-1.55,1.08-1.55,2.35,0,.73.23,1.67.7,2.8l12.2,29.5,6.9-19.2c1.07-3.13,1.6-5.8,1.6-8,0-4.87-2.47-7.53-7.4-8v-2c3.13.2,6.37.3,9.7.3s5.9-.1,7.7-.3Z"/>
  <path d="M238.65,118.55c2.7,1.87,4.82,4.67,6.35,8.4,1.53,3.73,2.3,8.3,2.3,13.7,0,9.53-2.08,16.85-6.25,21.95-4.17,5.1-9.82,7.65-16.95,7.65-2,0-3.88-.27-5.65-.8-1.77-.53-3.28-1.33-4.55-2.4v10c0,2.93.73,4.97,2.2,6.1,1.47,1.13,3.73,1.7,6.8,1.7v2.1l-2.7-.1c-7.4-.2-12.1-.3-14.1-.3s-6.2.13-12.6.4v-2.1c2.2,0,3.75-.48,4.65-1.45.9-.97,1.35-2.75,1.35-5.35v-50c0-3.07-.48-5.3-1.45-6.7-.97-1.4-2.62-2.1-4.95-2.1v-2.1c2.13.2,4.2.3,6.2.3,5.8,0,10.67-.46,14.6-1.4v9.2c1.4-3.07,3.43-5.42,6.1-7.05,2.67-1.63,5.8-2.45,9.4-2.45s6.55.93,9.25,2.8ZM229.4,161.2c1.87-4.23,2.8-10.42,2.8-18.55s-.75-13.93-2.25-17.4c-1.5-3.47-3.65-5.2-6.45-5.2-2.27,0-4.28.77-6.05,2.3-1.77,1.53-2.95,3.67-3.55,6.4v36.1c1.6,1.8,3.7,2.7,6.3,2.7,4.27,0,7.33-2.12,9.2-6.35Z"/>
  <path d="M298.1,154.05l1.8.6c-1.33,4.33-3.72,8.02-7.15,11.05-3.43,3.04-7.72,4.55-12.85,4.55-7.07,0-12.68-2.25-16.85-6.75-4.17-4.5-6.25-11.15-6.25-19.95s2.23-15.88,6.7-20.65c4.47-4.77,10.4-7.15,17.8-7.15,12.53,0,18.8,7.4,18.8,22.2h-28.1c-.07,1-.1,2.57-.1,4.7,0,4.4.62,8.07,1.85,11,1.23,2.93,2.83,5.07,4.8,6.4,1.97,1.33,4.08,2,6.35,2,5.47,0,9.87-2.67,13.2-8ZM274.75,122.3c-1.57,2.97-2.55,7.55-2.95,13.75h15.7c.13-5.27-.38-9.62-1.55-13.05-1.17-3.43-2.92-5.15-5.25-5.15s-4.38,1.48-5.95,4.45Z"/>
  <path class="cls-1" d="M481.99,100.05c-2.2.33-3.82.9-4.85,1.7-1.03.8-1.73,2.07-2.1,3.8-.37,1.73-.55,4.3-.55,7.7v55.8l-2.4-.1-2.7.1-43.4-55v38.4c0,3.93.2,6.82.6,8.65.4,1.83,1.27,3.17,2.6,4,1.33.83,3.5,1.42,6.5,1.75v2c-2.6-.2-6.2-.3-10.8-.3-3.67,0-6.57.1-8.7.3v-2c2.2-.33,3.82-.9,4.85-1.7,1.03-.8,1.73-2.07,2.1-3.8.37-1.73.55-4.3.55-7.7v-45c0-2.53-.18-4.37-.55-5.5-.37-1.13-1.07-1.9-2.1-2.3-1.03-.4-2.65-.67-4.85-.8v-2c2.13.2,5.03.3,8.7.3,3.33,0,6.2-.1,8.6-.3l38.7,47.7v-31.3c0-3.93-.2-6.82-.6-8.65-.4-1.83-1.27-3.17-2.6-4-1.33-.83-3.5-1.42-6.5-1.75v-2c2.6.2,6.2.3,10.8.3,3.73,0,6.63-.1,8.7-.3v2Z"/>
  <path class="cls-1" d="M529.89,154.05l1.8.6c-1.33,4.33-3.72,8.02-7.15,11.05-3.43,3.04-7.72,4.55-12.85,4.55-7.07,0-12.68-2.25-16.85-6.75-4.17-4.5-6.25-11.15-6.25-19.95s2.23-15.88,6.7-20.65c4.46-4.77,10.4-7.15,17.8-7.15,12.53,0,18.8,7.4,18.8,22.2h-28.1c-.07,1-.1,2.57-.1,4.7,0,4.4.62,8.07,1.85,11,1.23,2.93,2.83,5.07,4.8,6.4,1.97,1.33,4.08,2,6.35,2,5.47,0,9.87-2.67,13.2-8ZM506.54,122.3c-1.57,2.97-2.55,7.55-2.95,13.75h15.7c.13-5.27-.38-9.62-1.55-13.05-1.17-3.43-2.92-5.15-5.25-5.15s-4.38,1.48-5.95,4.45Z"/>
  <path class="cls-1" d="M614.99,117.15v2c-1.4.4-2.67,1.23-3.8,2.5-1.13,1.27-2.13,3.3-3,6.1l-13.3,41.3c-.73-.07-1.83-.1-3.3-.1s-2.47.03-3.2.1l-13.6-37.1-11.1,37.1c-.67-.07-1.73-.1-3.2-.1s-2.57.03-3.3.1l-15.8-44.2c-.8-2.33-1.7-3.85-2.7-4.55s-2.04-1.05-3.1-1.05v-2.1c4.33.4,9.07.6,14.2.6,3.33,0,7.67-.2,13-.6v2.1c-2.2,0-3.78.17-4.75.5-.97.33-1.45,1.13-1.45,2.4,0,.87.17,1.77.5,2.7l9,28.3,10.9-36.1,3.7.1,3.6-.1,13,38.2,6.3-20.1c.93-3.13,1.4-5.67,1.4-7.6,0-5.2-2.63-8-7.9-8.4v-2c3.13.2,6.57.3,10.3.3,3.4,0,5.93-.1,7.6-.3Z"/>
  <path class="cls-1" d="M644.99,116.7c2.13.63,3.77,1.35,4.9,2.15.67.47,1.27.7,1.8.7.6,0,1.12-.32,1.55-.95.43-.63.72-1.55.85-2.75h2.1c-.27,3.4-.4,9.27-.4,17.6h-2.1c-.6-4.4-1.92-8.08-3.95-11.05-2.03-2.97-4.98-4.45-8.85-4.45-2,0-3.65.57-4.95,1.7-1.3,1.13-1.95,2.7-1.95,4.7,0,2.27.77,4.22,2.3,5.85,1.53,1.63,3.93,3.62,7.2,5.95l2.9,2.1c4.07,3.07,7.07,5.8,9,8.2,1.93,2.4,2.9,5.4,2.9,9,0,2.93-.85,5.54-2.55,7.8-1.7,2.27-3.98,4-6.85,5.2-2.87,1.2-6.03,1.8-9.5,1.8-3.67,0-6.8-.7-9.4-2.1-2.13-1.07-3.67-1.77-4.6-2.1-.67-.2-1.25.02-1.75.65-.5.63-.88,1.58-1.15,2.85h-2.1c.27-3.8.4-10.47.4-20h2.1c1.33,12.27,5.83,18.4,13.5,18.4,1.93,0,3.58-.58,4.95-1.75,1.37-1.17,2.05-2.95,2.05-5.35,0-1.87-.42-3.53-1.25-5-.83-1.47-1.88-2.77-3.15-3.9-1.27-1.13-3.17-2.7-5.7-4.7-3-2.4-5.28-4.33-6.85-5.8-1.57-1.46-2.9-3.2-4-5.2-1.1-2-1.65-4.23-1.65-6.7,0-4.27,1.67-7.63,5-10.1,3.33-2.46,7.4-3.7,12.2-3.7,2.53,0,4.87.32,7,.95Z"/>
  <path class="cls-2" d="M297.45,206.26H45.45c-6.63,0-12-5.37-12-12v-124c0-6.63,5.37-12,12-12h252c3.31,0,6-2.69,6-6s-2.69-6-6-6H45.45c-13.23,0-24,10.77-24,24v124c0,13.23,10.77,24,24,24h252c3.31,0,6-2.69,6-6s-2.69-6-6-6Z"/>
  <path class="cls-2" d="M386.45,231.26h-21V29.26h21c3.31,0,6-2.69,6-6s-2.69-6-6-6h-54c-3.31,0-6,2.69-6,6s2.69,6,6,6h21v202h-21c-3.31,0-6,2.69-6,6s2.69,6,6,6h54c3.31,0,6-2.69,6-6s-2.69-6-6-6Z"/>
  <path class="cls-2" d="M687.45,46.26h-283c-3.31,0-6,2.69-6,6s2.69,6,6,6h283c6.63,0,12,5.37,12,12v124c0,6.63-5.37,12-12,12h-283c-3.31,0-6,2.69-6,6s2.69,6,6,6h283c13.23,0,24-10.77,24-24v-124c0-13.23-10.77-24-24-24Z"/>
</svg>